<?xml version="1.0" standalone="no"?><!DOCTYPE svg PUBLIC "-//W3C//DTD SVG 1.1//EN" "http://www.w3.org/Graphics/SVG/1.1/DTD/svg11.dtd"><svg t="1552698659165" class="icon" style="" viewBox="0 0 1024 1024" version="1.1" xmlns="http://www.w3.org/2000/svg" p-id="1868" xmlns:xlink="http://www.w3.org/1999/xlink" width="200" height="200"><defs><style type="text/css"></style></defs><path d="M512 473.8m-166.2 0a166.2 166.2 0 1 0 332.4 0 166.2 166.2 0 1 0-332.4 0Z" fill="#FFCE00" p-id="1869"></path><path d="M512 939.3c-41.2 0-79.9-16-109-45.1L243.7 734.8c-36.2-36.2-64.2-78.4-83.3-125.5-18.4-45.5-27.8-93.5-27.8-142.7 0-49.3 9.3-97.3 27.8-142.7 19.1-47.1 47.1-89.3 83.3-125.5 36.2-36.2 78.4-64.2 125.5-83.3 45.5-18.4 93.5-27.8 142.7-27.8 49.3 0 97.3 9.3 142.7 27.8 47.1 19.1 89.3 47.1 125.5 83.3 36.2 36.2 64.2 78.4 83.3 125.5 18.4 45.5 27.8 93.5 27.8 142.7 0 49.3-9.3 97.3-27.8 142.7-19.1 47.1-47.1 89.3-83.3 125.5L621 894.1c-29.1 29.2-67.8 45.2-109 45.2z m0-762.1c-77.3 0-150 30.1-204.6 84.8-54.7 54.7-84.8 127.3-84.8 204.6s30.1 150 84.8 204.6l159.3 159.3c12.1 12.1 28.2 18.8 45.3 18.8 17.1 0 33.2-6.7 45.3-18.8l159.3-159.3c54.7-54.7 84.8-127.3 84.8-204.6s-30.1-150-84.8-204.6C662 207.3 589.3 177.2 512 177.2z" fill="#242F44" p-id="1870"></path></svg>